 <svg  version="1.0" xmlns="http://www.w3.org/2000/svg"  width="564.000000pt" height="807.000000pt" viewBox="0 0 564.000000 807.000000"  preserveAspectRatio="xMidYMid meet">  <g transform="translate(0.000000,807.000000) scale(0.100000,-0.100000)" fill="#0099d7" stroke="none"> <path d="M24 5368 c1 -1487 -1 -2750 -4 -2808 l-5 -105 2793 -3 2792 -2 0 2810 0 2810 -35 0 -35 0 0 -2732 c-1 -2285 -3 -2736 -14 -2751 -8 -10 -28 -22 -45 -27 -18 -5 -1149 -9 -2689 -9 -2508 0 -2658 1 -2680 18 l-23 17 0 2742 1 2742 -28 0 -28 0 0 -2702z"/> <path d="M2555 7724 c-240 -25 -361 -51 -530 -114 -27 -11 -81 -29 -120 -41 -38 -12 -77 -28 -86 -36 -8 -7 -19 -13 -23 -13 -4 0 -55 -23 -113 -51 -151 -73 -241 -131 -436 -283 -132 -102 -159 -129 -276 -261 -221 -250 -322 -408 -465 -730 -24 -53 -66 -184 -90 -275 -8 -30 -23 -91 -35 -135 -37 -145 -52 -297 -52 -536 0 -123 4 -245 10 -269 5 -25 12 -74 16 -110 8 -75 41 -216 80 -345 15 -49 30 -101 32 -115 3 -14 11 -32 19 -40 7 -8 16 -28 20 -45 7 -30 97 -218 147 -307 39 -70 188 -289 217 -319 14 -14 52 -57 85 -95 63 -72 245 -246 318 -302 157 -121 396 -261 567 -332 193 -80 440 -150 578 -165 30 -3 57 -7 62 -10 15 -9 187 -17 380 -17 144 0 216 5 275 17 77 17 157 31 220 40 17 2 53 11 80 19 28 7 76 21 108 30 132 37 401 156 532 236 23 14 48 30 57 35 118 71 447 338 472 384 5 9 36 45 70 82 87 93 155 186 246 333 61 101 160 287 160 303 0 7 9 30 20 50 11 21 20 47 20 58 0 12 5 26 12 33 27 27 100 304 129 492 40 260 35 629 -13 805 -6 22 -14 63 -19 90 -4 28 -15 77 -23 110 -14 59 -22 83 -56 180 -10 28 -20 59 -23 70 -28 106 -179 383 -317 579 -95 136 -291 339 -442 459 -73 58 -147 117 -164 131 -18 14 -34 26 -38 26 -3 0 -36 19 -73 41 -84 52 -255 137 -348 174 -38 15 -86 34 -106 42 -69 28 -306 92 -384 103 -231 34 -511 43 -700 24z m560 -95 c22 -6 72 -14 110 -18 39 -4 80 -13 92 -19 12 -7 37 -12 55 -12 19 0 43 -7 54 -15 10 -8 35 -15 54 -15 19 0 44 -7 54 -15 11 -8 32 -15 47 -15 14 0 32 -7 39 -15 7 -8 22 -15 34 -15 12 0 31 -7 42 -15 10 -8 29 -15 40 -15 12 0 27 -7 34 -15 7 -8 17 -15 23 -15 15 0 96 -40 103 -51 3 -5 13 -9 23 -9 10 0 24 -7 31 -15 7 -8 21 -15 31 -15 11 0 19 -5 19 -11 0 -5 14 -15 30 -20 17 -6 30 -14 30 -19 0 -4 8 -10 18 -14 31 -10 213 -143 298 -218 70 -61 202 -195 249 -252 22 -27 55 -66 72 -85 18 -20 33 -40 33 -44 0 -5 19 -34 43 -65 24 -31 47 -64 50 -72 4 -8 16 -28 27 -45 11 -16 24 -39 30 -50 6 -11 19 -33 30 -50 19 -28 22 -35 35 -67 3 -7 9 -20 14 -28 5 -8 17 -33 26 -55 10 -22 24 -53 31 -68 8 -16 14 -37 14 -47 0 -9 7 -23 15 -30 8 -7 15 -24 15 -39 0 -14 7 -35 15 -45 8 -11 15 -34 15 -50 0 -17 7 -40 15 -50 8 -11 15 -34 15 -50 1 -17 7 -42 15 -56 8 -14 14 -44 15 -67 0 -23 5 -54 11 -70 42 -102 42 -753 0 -830 -6 -12 -11 -41 -11 -65 0 -24 -7 -56 -15 -72 -8 -15 -15 -43 -15 -60 0 -18 -7 -41 -15 -52 -8 -10 -15 -32 -15 -49 0 -16 -7 -39 -15 -49 -8 -11 -15 -29 -15 -41 0 -12 -7 -30 -15 -41 -8 -10 -15 -29 -15 -40 0 -12 -7 -27 -15 -34 -8 -7 -15 -23 -15 -35 0 -12 -7 -28 -15 -35 -8 -7 -15 -20 -15 -29 -1 -9 -12 -34 -25 -56 -14 -22 -27 -46 -30 -52 -3 -7 -7 -19 -10 -25 -3 -7 -14 -26 -25 -43 -11 -16 -23 -37 -27 -45 -3 -8 -19 -31 -35 -51 -15 -20 -28 -40 -28 -44 0 -11 -120 -166 -187 -242 -59 -66 -154 -161 -228 -227 -16 -15 -41 -37 -55 -49 -47 -42 -108 -87 -118 -87 -5 0 -12 -7 -16 -15 -3 -8 -10 -15 -17 -15 -6 0 -28 -12 -48 -27 -45 -35 -70 -50 -98 -62 -11 -6 -24 -15 -28 -20 -3 -6 -14 -11 -25 -11 -10 0 -20 -7 -24 -15 -3 -8 -14 -15 -24 -15 -11 0 -25 -7 -32 -15 -7 -8 -20 -15 -30 -15 -10 0 -23 -7 -30 -15 -7 -8 -23 -15 -35 -15 -12 0 -28 -7 -35 -15 -7 -8 -23 -15 -35 -15 -12 0 -28 -7 -35 -15 -7 -8 -25 -15 -40 -15 -15 0 -33 -7 -40 -15 -7 -8 -25 -15 -39 -15 -15 0 -36 -7 -47 -15 -10 -8 -35 -15 -54 -15 -19 0 -44 -7 -54 -15 -11 -8 -36 -15 -57 -15 -20 0 -53 -7 -72 -15 -20 -8 -57 -15 -81 -15 -25 0 -71 -7 -103 -15 -82 -21 -528 -22 -599 0 -27 8 -71 15 -97 15 -26 0 -64 7 -84 15 -19 8 -52 15 -72 15 -21 0 -46 7 -57 15 -10 8 -33 15 -50 15 -16 0 -39 7 -50 15 -10 8 -31 15 -45 15 -14 0 -34 7 -45 15 -10 8 -28 15 -40 15 -11 0 -29 7 -40 15 -10 8 -29 15 -40 15 -12 0 -27 7 -34 15 -7 8 -17 15 -23 15 -15 0 -156 71 -163 81 -3 5 -13 9 -24 9 -10 0 -20 7 -24 15 -3 8 -13 15 -22 15 -9 0 -33 12 -53 28 -20 15 -44 32 -53 37 -38 23 -132 89 -148 104 -9 9 -48 42 -86 73 -66 54 -218 206 -278 278 -46 56 -172 224 -179 240 -4 8 -16 29 -27 45 -11 17 -24 40 -29 52 -5 11 -15 24 -20 28 -6 3 -11 15 -11 26 0 11 -7 22 -15 25 -8 4 -15 14 -15 24 0 10 -7 23 -15 30 -8 7 -15 23 -15 35 0 12 -7 28 -15 35 -8 7 -15 20 -15 30 0 10 -7 23 -15 30 -8 7 -15 22 -15 34 0 12 -7 31 -15 42 -8 10 -15 28 -15 40 0 11 -7 29 -15 40 -8 10 -15 33 -15 49 0 17 -7 39 -15 49 -8 11 -15 34 -15 50 -1 17 -7 42 -15 56 -8 14 -14 42 -15 62 0 20 -5 49 -11 65 -7 15 -15 66 -20 113 -4 47 -12 117 -18 155 -13 90 -13 282 0 365 5 36 13 106 18 155 4 50 13 100 19 112 7 12 12 39 12 60 1 21 7 49 15 63 8 14 15 41 15 60 0 19 7 44 15 54 8 11 15 32 15 46 0 14 7 35 15 46 8 10 15 28 15 40 0 11 7 29 15 40 8 10 15 29 15 40 0 12 7 27 15 34 8 7 15 23 15 35 0 12 7 28 15 35 8 7 15 20 15 30 0 10 7 23 15 30 8 7 15 21 15 31 0 10 5 21 11 24 5 4 15 17 20 28 5 12 18 36 29 52 11 17 24 39 30 50 6 11 18 32 28 47 57 87 96 144 106 153 6 6 29 33 51 60 22 28 49 61 60 75 42 51 197 201 257 247 35 26 68 52 73 58 16 18 92 75 100 75 4 0 24 13 44 28 20 16 43 32 51 35 8 4 29 16 45 27 17 10 53 31 80 45 52 27 74 38 103 55 9 6 24 13 32 16 8 3 28 12 43 20 16 7 37 14 48 14 11 0 22 7 25 15 4 8 18 15 33 15 14 0 35 7 45 15 11 8 31 15 45 15 14 0 35 7 45 15 11 8 34 15 51 15 17 0 40 7 51 15 10 8 37 15 59 15 22 0 51 7 65 15 14 8 48 15 75 15 28 1 73 7 100 15 63 17 568 20 630 4z"/> <path d="M1584 6471 c-7 -8 -4 -2431 4 -2431 4 0 171 0 372 -1 l365 0 2 478 2 478 481 3 481 2 -1 -476 c-1 -262 2 -479 7 -483 4 -3 172 -4 373 -1 358 5 365 5 361 25 -9 44 -12 2200 -3 2297 6 57 9 104 7 106 -4 5 -737 3 -742 -2 -2 -2 -4 -205 -3 -450 l1 -446 -477 -2 c-262 -2 -478 0 -480 4 -3 4 -6 208 -7 453 l-2 446 -368 2 c-203 1 -371 0 -373 -2z m240 -86 c18 -18 28 -19 44 -3 7 7 58 11 149 11 l138 0 33 -31 c17 -16 32 -37 32 -46 0 -8 8 -19 17 -25 16 -8 16 -14 5 -56 -7 -25 -9 -51 -6 -57 4 -5 8 -114 10 -242 5 -276 9 -323 34 -364 42 -68 30 -67 485 -70 225 -2 435 0 465 3 47 6 60 13 100 53 l45 46 5 311 c3 170 2 321 -1 335 -7 31 22 105 46 113 9 4 14 11 10 16 -3 6 79 11 207 13 l213 3 23 -25 c12 -14 34 -41 47 -60 22 -32 23 -39 13 -73 -8 -25 -9 -44 -2 -55 5 -11 6 -378 0 -976 -6 -722 -6 -964 3 -978 12 -20 7 -38 -11 -38 -6 0 -28 -18 -49 -41 -21 -23 -43 -38 -49 -34 -6 4 -91 6 -188 5 l-178 -1 -41 36 -42 35 -1 372 c0 205 -3 382 -6 395 -4 13 -11 23 -18 23 -6 0 -16 10 -21 23 -6 12 -28 31 -50 42 -38 19 -63 20 -452 23 -355 2 -420 1 -467 -13 -57 -17 -84 -42 -105 -99 -6 -15 -11 -176 -11 -395 l-1 -368 -49 -24 c-30 -15 -48 -29 -45 -37 4 -10 -16 -13 -88 -12 -50 1 -110 -1 -132 -5 -31 -5 -44 -3 -54 9 -17 20 -45 21 -61 1 -19 -22 -61 -19 -67 5 -3 11 -11 20 -19 20 -7 0 -21 11 -30 25 -9 14 -23 25 -30 25 -17 0 -18 12 -4 26 7 7 9 152 5 450 -17 1273 -16 1477 2 1512 17 32 17 34 1 46 -22 16 -23 52 -3 60 8 3 15 12 15 20 0 8 10 23 23 33 13 10 26 26 30 36 8 21 60 23 81 2z"/> <path d="M1310 2040 c-5 -159 -3 -790 3 -791 4 -1 31 -1 60 -2 l52 -1 3 124 c1 69 -2 202 -9 295 -15 229 -16 264 -4 267 5 2 11 -6 13 -17 2 -11 11 -28 20 -38 10 -11 18 -50 23 -115 13 -153 25 -235 37 -259 7 -12 12 -45 12 -73 0 -28 5 -61 12 -73 7 -12 15 -42 18 -67 l5 -45 49 2 c28 2 53 9 58 15 4 7 8 40 8 73 0 33 7 71 15 85 8 14 14 47 15 73 0 27 6 58 12 70 7 12 16 54 20 92 4 39 12 115 18 169 11 107 21 132 40 96 12 -22 8 -434 -6 -601 -6 -78 -7 -76 89 -71 l67 4 0 392 0 393 -109 -2 c-60 -1 -114 -5 -120 -9 -6 -4 -11 -31 -11 -59 -1 -29 -7 -63 -15 -77 -8 -14 -15 -45 -15 -70 0 -25 -7 -56 -15 -70 -10 -17 -14 -58 -15 -131 0 -82 -3 -109 -15 -119 -12 -10 -18 -10 -30 0 -12 10 -15 37 -15 125 0 77 -5 124 -15 148 -8 20 -15 58 -15 85 0 27 -7 66 -15 85 -8 20 -15 51 -15 69 l0 33 -105 0 c-58 0 -105 -2 -105 -5z"/> <path d="M2155 2041 c-3 -2 -5 -20 -5 -40 0 -20 -7 -49 -15 -65 -8 -15 -15 -47 -15 -70 0 -23 -7 -51 -15 -62 -8 -10 -15 -36 -15 -57 0 -21 -7 -54 -15 -74 -8 -19 -15 -52 -15 -72 -1 -20 -7 -47 -15 -61 -8 -14 -15 -45 -15 -70 0 -25 -7 -54 -15 -64 -8 -11 -15 -39 -15 -62 0 -25 -6 -47 -15 -54 -32 -26 -17 -40 45 -41 33 -1 66 -2 73 -3 8 -1 14 23 19 72 11 108 14 112 103 112 89 0 96 -7 104 -115 l6 -70 80 4 c44 1 82 5 85 7 2 3 -1 14 -8 24 -7 11 -12 34 -12 52 -1 18 -7 44 -15 58 -8 14 -15 45 -15 70 0 25 -7 56 -15 70 -8 14 -14 44 -15 66 0 23 -7 55 -15 70 -8 16 -15 47 -15 69 -1 22 -7 51 -15 65 -8 14 -14 44 -15 68 0 24 -5 53 -12 65 -7 12 -15 42 -18 67 l-5 44 -83 1 c-46 0 -85 -1 -87 -4z m93 -216 c2 -33 7 -64 13 -69 5 -6 9 -33 9 -60 1 -28 9 -69 19 -90 28 -58 20 -66 -60 -66 -75 0 -95 14 -68 47 14 16 25 88 35 213 6 82 10 92 31 88 14 -3 19 -15 21 -63z"/> <path d="M2548 2037 c-2 -7 -1 -118 3 -247 4 -129 6 -304 5 -387 l-2 -153 77 0 c43 0 80 3 82 8 2 4 -2 70 -9 146 -9 105 -9 143 -1 158 23 36 77 10 77 -38 0 -16 7 -42 15 -58 8 -15 15 -42 15 -60 0 -17 7 -40 15 -50 8 -11 15 -39 15 -63 l0 -43 70 -2 c39 -1 78 -2 87 -2 23 -1 29 30 9 50 -9 8 -16 25 -16 37 0 12 -7 31 -15 41 -8 11 -15 29 -15 41 0 12 -7 30 -15 41 -8 10 -15 31 -15 45 0 15 -7 32 -15 39 -16 13 -21 70 -7 70 5 0 25 16 44 35 31 31 36 44 41 98 3 34 3 90 0 124 -5 55 -10 67 -49 111 -50 58 -51 58 -271 66 -86 3 -123 1 -125 -7z m282 -142 c18 -22 23 -126 8 -155 -19 -35 -83 -66 -116 -54 -25 9 -25 10 -25 118 0 132 8 143 78 119 24 -8 49 -21 55 -28z"/> <path d="M3087 2036 c-3 -7 -1 -52 5 -102 5 -49 7 -152 4 -229 -3 -77 -6 -210 -7 -295 l-2 -155 79 -6 c43 -3 82 -2 87 1 4 3 6 184 5 401 l-3 394 -82 1 c-55 1 -83 -2 -86 -10z"/> <path d="M3380 2046 c-4 -8 -4 -796 0 -797 3 -1 30 -2 60 -2 l55 -2 -1 215 c0 177 -3 224 -18 265 -9 27 -15 59 -11 72 6 27 35 31 35 5 0 -11 9 -29 20 -42 13 -15 20 -37 20 -66 0 -24 5 -46 10 -49 6 -3 10 -16 10 -28 0 -12 7 -35 15 -51 8 -15 15 -38 15 -50 0 -11 7 -30 15 -40 8 -11 15 -32 15 -47 0 -14 7 -32 15 -39 8 -7 15 -25 15 -39 0 -15 9 -45 19 -67 21 -43 11 -40 136 -34 8 0 11 554 5 793 0 4 -30 7 -66 7 l-66 0 4 -167 c4 -121 10 -186 23 -233 19 -68 15 -120 -9 -120 -8 0 -17 16 -21 37 -4 21 -12 41 -17 44 -6 4 -13 30 -16 58 -2 28 -9 54 -13 57 -5 3 -9 18 -9 33 0 15 -7 36 -15 47 -8 10 -15 30 -15 45 0 14 -5 30 -11 36 -6 6 -15 29 -20 50 -4 21 -13 54 -20 74 l-13 36 -73 0 c-40 0 -73 -1 -73 -1z"/> <path d="M3940 2040 c0 -3 -1 -181 -3 -397 l-2 -392 195 -3 c107 -2 201 -1 208 1 8 2 12 23 12 61 0 34 -5 61 -12 67 -8 6 -53 7 -122 1 -60 -5 -112 -6 -117 -1 -10 11 -15 185 -6 201 6 8 34 10 102 5 l95 -6 0 71 c0 39 -4 73 -9 76 -5 3 -44 0 -87 -8 -103 -18 -106 -15 -107 101 l0 88 119 2 c65 1 125 2 132 3 10 0 12 17 10 66 l-3 67 -203 1 c-111 0 -202 -1 -202 -4z"/> <path d="M716 953 c-32 -5 -126 -93 -126 -118 0 -9 -6 -28 -14 -43 -30 -60 -28 -395 4 -482 39 -105 50 -118 119 -150 54 -25 162 -28 181 -5 7 8 18 15 24 15 15 0 76 62 76 77 0 6 7 16 15 23 8 7 15 25 15 40 0 15 7 47 15 70 20 57 20 289 0 345 -8 22 -15 52 -15 66 0 15 -7 32 -15 39 -8 7 -15 20 -15 30 0 28 -67 87 -108 94 -39 6 -108 6 -156 -1z m125 -145 c17 -21 18 -43 19 -252 l0 -229 -26 -23 c-33 -32 -67 -30 -99 3 l-25 28 0 209 c0 178 3 215 18 247 15 35 21 39 55 39 28 0 44 -6 58 -22z"/> <path d="M1132 558 l3 -403 55 3 c30 2 58 7 62 10 3 4 2 124 -3 267 -5 143 -6 268 -3 277 3 10 11 18 19 18 16 0 25 -31 25 -92 0 -27 4 -48 9 -48 5 0 12 -20 15 -45 4 -24 11 -47 17 -50 5 -4 9 -16 9 -29 0 -12 7 -31 15 -42 8 -10 15 -31 15 -45 0 -14 7 -34 15 -45 8 -10 15 -30 15 -44 0 -14 6 -35 14 -46 8 -11 16 -33 18 -49 3 -30 3 -30 76 -33 l72 -3 -2 398 -3 398 -55 3 c-30 1 -60 -1 -66 -5 -9 -6 -8 -63 3 -228 14 -226 12 -285 -11 -285 -18 0 -26 22 -26 75 0 24 -4 47 -10 50 -5 3 -10 21 -10 38 -1 18 -7 43 -15 57 -8 14 -15 36 -15 50 0 14 -7 34 -15 44 -8 11 -15 32 -15 47 0 14 -7 32 -15 39 -8 7 -15 27 -15 44 0 19 -9 42 -20 54 -18 19 -32 22 -91 22 l-69 0 2 -402z"/> <path d="M1642 946 c-7 -13 -2 -129 6 -138 4 -3 27 -3 52 2 27 5 49 5 55 -1 6 -6 8 -131 6 -330 l-3 -320 82 3 83 3 -4 255 c-1 140 -3 284 -3 320 l-1 65 70 0 70 0 0 74 0 73 -203 2 c-116 0 -206 -3 -210 -8z"/> <path d="M2125 949 c-3 -8 -4 -189 -3 -403 l3 -388 68 0 c38 0 72 4 76 8 4 5 5 72 1 149 -3 80 -2 145 3 153 16 20 54 14 71 -13 9 -13 16 -41 16 -62 0 -21 7 -47 15 -57 8 -11 15 -30 15 -43 0 -12 8 -47 17 -78 l17 -55 148 0 c171 0 165 -4 176 109 l7 66 80 6 c44 3 83 3 88 1 4 -2 7 -16 7 -32 0 -25 25 -139 32 -146 2 -1 35 -4 73 -6 70 -3 70 -3 73 24 2 15 -4 38 -12 50 -9 12 -16 37 -16 56 0 18 -7 49 -15 69 -8 19 -15 52 -15 72 -1 20 -7 47 -15 61 -8 14 -14 46 -15 71 0 25 -7 54 -15 65 -8 10 -15 41 -15 69 0 28 -7 59 -15 69 -8 11 -15 38 -15 61 0 23 -7 62 -16 88 l-16 47 -73 0 c-65 0 -76 -3 -89 -22 -9 -12 -16 -43 -16 -68 -1 -25 -7 -56 -15 -70 -8 -14 -15 -43 -15 -65 0 -22 -7 -51 -15 -65 -8 -14 -15 -43 -15 -65 0 -22 -7 -51 -15 -65 -8 -14 -15 -43 -15 -65 0 -22 -7 -51 -15 -65 -8 -14 -15 -45 -15 -70 0 -25 -7 -56 -15 -70 -8 -14 -14 -35 -15 -47 0 -13 -6 -23 -13 -23 -15 0 -47 66 -47 96 0 11 -7 29 -15 40 -8 10 -15 31 -15 45 0 15 -7 32 -15 39 -9 8 -15 30 -15 59 0 40 4 49 30 66 16 11 30 27 30 35 0 8 7 24 15 34 21 27 20 183 0 210 -8 11 -15 27 -15 35 0 9 -19 32 -42 53 l-43 38 -131 0 c-72 0 -145 3 -163 6 -21 5 -32 2 -36 -7z m257 -143 c10 -11 22 -26 28 -33 5 -7 10 -34 10 -60 0 -40 -5 -54 -33 -85 -29 -32 -40 -38 -75 -38 l-41 0 -3 113 c-2 61 1 117 5 123 13 19 89 5 109 -20z m475 -18 c6 -7 11 -51 12 -98 1 -49 8 -94 15 -105 7 -11 16 -48 19 -83 l7 -63 -68 3 -67 3 4 54 c1 29 9 69 17 87 8 20 14 68 14 117 0 46 3 87 7 90 10 11 30 8 40 -5z"/> <path d="M3645 951 c-8 -7 8 -136 17 -142 5 -3 28 -3 51 2 23 4 46 4 50 0 4 -5 8 -153 7 -330 l0 -321 86 0 87 0 -6 103 c-4 56 -8 201 -9 322 l-1 220 69 0 69 1 3 74 3 75 -211 0 c-117 0 -213 -2 -215 -4z"/> <path d="M4250 953 c-14 -3 -32 -10 -40 -17 -8 -7 -23 -16 -32 -19 -10 -4 -18 -13 -18 -20 0 -8 -7 -20 -15 -27 -8 -7 -15 -20 -15 -30 0 -10 -6 -23 -14 -29 -8 -7 -16 -35 -19 -64 -2 -29 -10 -82 -16 -119 -10 -53 -10 -83 -1 -135 7 -38 14 -94 17 -125 3 -32 12 -63 19 -69 8 -6 14 -21 14 -33 0 -25 54 -84 99 -108 44 -24 148 -24 192 0 41 22 99 79 99 96 0 8 6 19 14 25 25 21 46 299 29 380 -6 31 -12 74 -13 96 0 22 -7 49 -15 59 -8 11 -15 27 -15 37 0 29 -76 96 -117 103 -41 6 -113 6 -153 -1z m131 -145 c17 -21 18 -43 19 -248 l0 -225 -25 -28 c-32 -33 -66 -35 -99 -3 l-26 23 0 216 c0 186 2 221 18 251 15 31 22 36 55 36 28 0 44 -6 58 -22z"/> <path d="M4670 953 c0 -2 -1 -180 -1 -395 l0 -393 71 -5 c40 -3 74 -1 77 3 3 5 4 76 2 159 -4 161 -3 166 44 154 26 -6 47 -47 47 -91 0 -17 7 -40 15 -51 8 -10 15 -38 15 -61 0 -23 4 -44 9 -48 5 -3 12 -19 16 -35 l7 -30 79 0 c90 0 94 5 59 75 -11 22 -20 49 -20 61 0 12 -7 27 -15 34 -8 7 -15 27 -15 45 0 18 -6 38 -14 44 -8 7 -18 30 -21 52 -6 37 -4 43 25 68 40 33 62 88 67 168 5 61 -1 81 -45 172 -9 18 -23 36 -32 39 -8 3 -22 11 -30 17 -10 9 -69 14 -177 17 -90 3 -163 3 -163 1z m255 -137 c62 -66 58 -155 -10 -206 -26 -19 -77 -31 -90 -20 -11 9 -12 221 -1 239 9 13 86 3 101 -13z"/> <path d="M5308 951 c-33 -7 -87 -55 -110 -98 -24 -42 -26 -224 -3 -243 8 -7 15 -18 15 -24 0 -14 36 -49 60 -60 8 -3 35 -17 59 -31 24 -14 49 -25 55 -25 19 -1 64 -44 75 -71 7 -19 6 -38 -4 -65 -11 -32 -19 -40 -47 -46 -18 -3 -48 -3 -67 0 -29 6 -36 15 -55 60 -20 49 -37 64 -51 42 -3 -6 -16 -10 -29 -10 -45 0 -74 -63 -41 -90 8 -7 15 -20 15 -29 0 -21 58 -81 99 -103 43 -24 151 -24 194 -2 18 9 39 20 47 24 8 4 30 26 48 49 l32 43 0 121 0 122 -35 38 c-18 20 -40 37 -48 37 -8 0 -20 7 -27 15 -7 8 -20 15 -29 15 -9 0 -22 5 -27 10 -6 6 -31 21 -55 34 -42 23 -44 26 -47 76 -4 65 15 90 67 90 41 0 72 -27 81 -70 4 -20 11 -24 29 -22 13 2 31 10 38 18 8 8 23 14 34 14 23 0 26 32 4 50 -8 7 -15 20 -15 30 0 30 -75 97 -117 104 -45 7 -108 6 -145 -3z"/> <path d="M150 935 c-7 -8 -16 -15 -21 -15 -12 0 -49 -37 -49 -49 0 -5 -7 -11 -15 -15 -8 -3 -15 -16 -15 -28 0 -13 -6 -32 -14 -43 -20 -30 -21 -450 0 -490 8 -15 14 -32 14 -39 0 -14 66 -86 78 -86 5 0 15 -7 22 -15 18 -21 182 -21 200 0 7 8 18 15 25 15 35 0 91 107 100 191 l7 66 -32 7 c-18 3 -48 6 -66 6 -33 0 -34 -1 -34 -40 0 -54 -26 -103 -66 -125 -33 -18 -35 -18 -56 1 -59 51 -57 42 -58 271 0 198 1 214 21 247 19 33 25 36 65 36 40 0 46 -3 68 -39 17 -26 26 -57 28 -92 l3 -53 65 3 c36 1 69 6 74 11 4 4 1 33 -8 63 -9 30 -16 66 -16 80 0 13 -7 30 -15 37 -8 7 -15 19 -15 26 0 15 -35 54 -49 54 -5 0 -14 7 -21 15 -18 22 -202 22 -220 0z"/> <path d="M3258 910 c-82 -70 -110 -157 -115 -357 -3 -112 -1 -149 11 -178 9 -21 16 -50 16 -65 0 -15 7 -33 15 -40 8 -7 15 -18 15 -24 1 -15 38 -56 78 -84 44 -31 174 -32 226 -1 37 22 86 79 86 101 0 8 6 22 14 33 18 27 27 104 15 127 -8 14 -22 18 -69 18 -55 0 -60 -2 -60 -22 -1 -13 -7 -45 -14 -72 -10 -39 -19 -52 -46 -66 -32 -16 -36 -17 -60 -1 -41 26 -47 39 -60 144 -11 82 -11 123 -1 230 15 153 26 176 84 177 59 0 97 -55 97 -142 l0 -39 73 3 c66 3 72 5 69 23 -2 11 -6 44 -9 72 -3 29 -12 58 -19 64 -8 6 -14 20 -14 29 0 10 -21 39 -46 64 l-46 46 -96 0 -97 0 -47 -40z"/> </g> </svg> 